<svg xmlns="http://www.w3.org/2000/svg" viewBox="0 0 512 512" width="512" height="512">
  <defs>
    <linearGradient id="bg" x1="0" y1="0" x2="1" y2="1">
      <stop offset="0" stop-color="#1b4332"/>
      <stop offset="1" stop-color="#2d6a4f"/>
    </linearGradient>
  </defs>
  <rect width="512" height="512" rx="96" fill="url(#bg)"/>
  <!-- towable travel trailer (Wolf Pup style) -->
  <g transform="translate(51,26) scale(6.4)">
    <path d="M12 41 L3 46 L3 48 L13 43 Z" fill="#ffffff"/>
    <path d="M8 42 Q8 22 25 21 L57 21 Q61 21 61 25 L61 42 Z" fill="#ffffff"/>
    <path d="M14 29 Q15 24 22 24 L29 24 L29 33 L13 33 Q13 31 14 29 Z" fill="#40916c"/>
    <rect x="8" y="37" width="53" height="3.6" fill="#1b365d"/>
    <rect x="45" y="24" width="11" height="18" rx="2" fill="#15191c"/>
    <circle cx="47.4" cy="33" r="1" fill="#cfd6d2"/>
    <circle cx="34" cy="44" r="7" fill="#1d2b25"/>
    <circle cx="34" cy="44" r="3" fill="#6b7d74"/>
  </g>
</svg>
